<?xml version="1.0" standalone="no"?>
<!DOCTYPE svg PUBLIC "-//W3C//DTD SVG 20010904//EN"
 "http://www.w3.org/TR/2001/REC-SVG-20010904/DTD/svg10.dtd">
<svg version="1.0" xmlns="http://www.w3.org/2000/svg"
 width="700.000000pt" height="700.000000pt" viewBox="0 0 700.000000 700.000000"
 preserveAspectRatio="xMidYMid meet">
<metadata>
Created by potrace 1.11, written by Peter Selinger 2001-2013
</metadata>
<g transform="translate(0.000000,700.000000) scale(0.100000,-0.100000)"
fill="#000000" stroke="none">
<path d="M2285 6071 c-22 -13 -100 -137 -298 -475 l-269 -456 -601 0 c-663 0
-669 -1 -796 -62 -98 -48 -209 -161 -260 -267 -22 -46 -44 -110 -50 -149 -8
-48 -11 -523 -9 -1677 l3 -1610 26 -67 c71 -183 184 -296 368 -367 l66 -26
2990 -3 c2149 -2 3008 0 3055 8 36 6 103 29 149 51 67 31 98 54 160 116 88 89
132 166 161 279 20 75 20 116 20 1663 0 1749 3 1656 -64 1789 -93 185 -274
304 -486 320 l-85 7 -6 56 c-12 110 -80 221 -174 284 -97 64 -117 67 -445 72
-169 3 -326 0 -367 -5 -189 -26 -324 -158 -355 -345 l-11 -67 -264 0 -263 0
-45 63 c-25 34 -170 242 -323 462 -159 227 -289 405 -303 412 -18 10 -196 13
-759 13 -699 0 -736 -1 -765 -19z m1653 -571 l241 -350 -280 0 -279 0 0 225
c0 246 -5 274 -55 313 -27 22 -31 22 -482 22 -491 0 -491 0 -527 -54 -14 -22
-16 -59 -16 -266 l0 -240 -265 0 c-146 0 -265 3 -265 6 0 3 93 161 206 350
l207 344 637 0 637 0 241 -350z m-558 -190 l0 -170 -300 0 -300 0 0 170 0 170
300 0 300 0 0 -170z m2627 9 c54 -20 94 -71 106 -136 l7 -33 -447 0 -446 0 6
40 c6 50 39 95 85 120 34 18 60 19 349 20 198 0 322 -4 340 -11z m504 -433
c122 -37 213 -137 239 -260 7 -35 9 -553 8 -1631 l-3 -1580 -33 -67 c-38 -77
-92 -130 -171 -167 l-56 -26 -2995 0 -2995 0 -67 33 c-77 38 -130 92 -167 171
l-26 56 0 1610 0 1610 28 60 c44 94 119 162 210 191 65 20 5962 20 6028 0z"/>
<path d="M645 4515 l-35 -36 0 -1390 c0 -1274 1 -1392 16 -1415 38 -58 -98
-54 2034 -54 1831 0 1964 1 1991 17 63 37 59 -52 59 1448 0 1500 4 1411 -59
1448 -27 16 -160 17 -2000 17 l-1970 0 -36 -35z m3835 -1110 c0 -498 -3 -905
-7 -904 -5 0 -231 253 -503 561 -272 309 -508 569 -525 580 -39 23 -86 23
-117 -2 -14 -11 -218 -252 -453 -535 -377 -456 -429 -514 -443 -503 -9 7 -136
121 -282 253 -500 453 -454 415 -502 415 -25 0 -54 -8 -68 -18 -14 -9 -153
-150 -309 -312 -156 -162 -315 -326 -352 -365 l-69 -70 0 903 0 902 1815 0
1815 0 0 -905z m-521 -677 l521 -588 0 -145 0 -145 -1815 0 -1815 0 0 163 0
162 361 380 c198 209 375 394 392 412 l32 32 384 -345 383 -344 50 0 c41 0 54
5 76 28 15 15 214 253 442 530 l414 502 27 -27 c14 -16 261 -292 548 -615z"/>
<path d="M2093 4110 c-72 -15 -130 -47 -181 -97 -176 -176 -128 -460 96 -570
50 -25 68 -28 152 -28 85 0 101 3 153 29 160 82 240 282 175 443 -31 76 -70
125 -133 167 -80 53 -177 74 -262 56z m152 -159 c74 -33 125 -113 125 -197 0
-45 -50 -135 -89 -162 -116 -76 -269 -31 -317 93 -67 177 110 344 281 266z"/>
<path d="M5345 4527 c-98 -47 -146 -117 -153 -221 -4 -59 0 -81 18 -124 39
-90 145 -162 240 -162 55 0 132 31 175 71 60 56 87 115 88 192 1 147 -103 257
-253 264 -53 3 -74 -1 -115 -20z"/>
<path d="M5998 4017 c-75 -22 -150 -89 -178 -162 -38 -97 2 -235 87 -300 174
-133 423 -11 423 206 0 177 -163 303 -332 256z"/>
<path d="M5563 3019 c-175 -29 -358 -149 -457 -297 -88 -133 -121 -247 -120
-407 2 -199 66 -350 209 -491 136 -135 302 -203 496 -204 207 0 419 100 544
258 60 75 122 202 140 288 69 327 -85 646 -380 789 -138 67 -284 89 -432 64z
m258 -255 c156 -46 278 -174 316 -332 21 -90 10 -209 -29 -292 -87 -189 -283
-299 -483 -271 -223 32 -395 229 -395 454 0 199 120 364 320 439 60 22 199 23
271 2z"/>
</g>
</svg>
