<?xml version="1.0" encoding="iso-8859-1"?>
<!-- Generator: Adobe Illustrator 19.0.0, SVG Export Plug-In . SVG Version: 6.00 Build 0)  -->
<svg version="1.1" id="Capa_1" xmlns="http://www.w3.org/2000/svg" xmlns:xlink="http://www.w3.org/1999/xlink" x="0px" y="0px"
	 viewBox="0 0 511.999 511.999" style="enable-background:new 0 0 511.999 511.999;" xml:space="preserve">
<g>
	<path style="fill:#07C9CA;" d="M8.668,402.726c0,18.573,15.477,34.05,34.05,34.05h426.562c18.573,0,34.05-15.477,34.05-34.05
		V178.611c0-18.573-15.477-34.05-34.05-34.05H42.718c-18.573,0-34.05,15.477-34.05,34.05C8.668,178.611,8.668,402.726,8.668,402.726
		z"/>
	<polygon style="fill:#07C9CA;" points="131.25,144.56 172.112,75.221 275.502,75.221 322.553,144.56 	"/>
</g>
<path style="fill:#FF846F;" d="M455.042,144.56c1.857-3.096,2.476-6.191,2.476-9.905l0,0c0-11.763-9.287-21.049-21.049-21.049
	h-39.622c-11.763,0-21.049,9.287-21.049,21.049l0,0c0,3.715,0.619,6.81,2.476,9.905H455.042z"/>
<g>
	<path style="fill:#17232C;" d="M468.662,445.445H42.718C19.192,445.445,0,426.253,0,402.726V178.611
		c0-23.526,19.192-42.718,42.718-42.718h426.562c23.526,0,42.718,19.192,42.718,42.718v224.116
		C511.381,426.253,492.188,445.445,468.662,445.445z M42.718,153.228c-14.24,0-25.384,11.763-25.384,25.383v224.116
		c0,14.24,11.763,25.384,25.384,25.384h426.562c14.24,0,25.384-11.764,25.384-25.384V178.611c0-14.24-11.764-25.383-25.384-25.383
		H42.718z"/>
	<path style="fill:#17232C;" d="M377.654,153.228c-3.096,0-6.191-1.857-7.429-4.333c-2.476-4.333-3.715-9.287-3.715-13.62
		c0-16.716,13.62-29.717,29.717-29.717h39.622c16.716,0,29.717,13.62,29.717,29.717c0,4.953-1.239,9.905-3.715,13.62
		c-2.476,4.333-7.429,5.572-11.764,3.715c-4.333-2.476-5.572-7.429-3.715-11.764c1.239-1.857,1.239-3.715,1.239-6.191
		c0-6.81-5.572-13.001-13.001-13.001h-39.622c-6.81,0-13.001,5.572-13.001,13.001c0,1.857,0.619,4.333,1.239,6.191
		c2.476,4.333,0.619,9.287-3.715,11.763C380.13,152.609,378.892,153.228,377.654,153.228z"/>
</g>
<rect x="55.719" y="187.897" style="fill:#D3EEE5;" width="276.117" height="196.87"/>
<circle style="fill:#FFD07D;" cx="157.87" cy="236.811" r="21.049"/>
<path style="fill:#16232C;" d="M157.872,262.81c-14.24,0-26.002-11.763-26.002-26.002s11.764-26.002,26.002-26.002
	s26.002,11.763,26.002,26.002C183.254,251.665,172.112,262.81,157.872,262.81z M157.872,221.329c-8.668,0-15.477,6.81-15.477,15.477
	c0,8.668,6.81,15.477,15.477,15.477s15.477-6.81,15.477-15.477C173.349,228.139,166.539,221.329,157.872,221.329z"/>
<g>
	<path style="fill:#17232C;" d="M322.553,153.228c-2.476,0-5.572-1.239-6.81-3.715l-45.194-65.624h-93.485l-39.003,65.006
		c-2.476,4.333-7.429,5.572-11.763,3.096c-4.333-2.476-5.572-7.429-3.096-11.763l40.861-69.34c1.239-2.476,4.333-4.333,7.429-4.333
		h103.39c3.096,0,5.572,1.239,6.81,3.715l48.29,69.34c2.476,3.715,1.857,9.287-2.476,11.763
		C326.268,152.609,324.411,153.228,322.553,153.228z"/>
	<path style="fill:#17232C;" d="M417.896,198.423c0,10.525-8.668,19.192-19.192,19.192l0,0c-10.525,0-19.192-8.668-19.192-19.192
		l0,0c0-10.525,8.668-19.192,19.192-19.192l0,0C409.228,179.23,417.896,187.898,417.896,198.423L417.896,198.423z"/>
	<path style="fill:#17232C;" d="M463.09,236.806c0,10.525-8.668,19.192-19.192,19.192l0,0c-10.525,0-19.192-8.668-19.192-19.192l0,0
		c0-10.525,8.668-19.192,19.192-19.192l0,0C454.423,217.615,463.09,226.282,463.09,236.806L463.09,236.806z"/>
</g>
<path style="fill:#FF846F;" d="M458.756,342.674c0,23.526-19.192,42.718-42.718,42.718l0,0c-23.526,0-42.718-19.192-42.718-42.718
	l0,0c0-23.526,19.192-42.718,42.718-42.718l0,0C439.565,299.956,458.756,319.148,458.756,342.674L458.756,342.674z"/>
<polygon style="fill:#A0F236;" points="52.623,344.531 118.869,282.62 182.017,334.006 247.641,253.522 338.65,355.675 
	338.65,384.773 52.623,384.773 "/>
<g>
	<path style="fill:#17232C;" d="M416.038,393.44c-28.478,0-51.386-22.906-51.386-51.386c0-28.478,22.906-51.386,51.386-51.386
		c28.478,0,51.386,22.906,51.386,51.386C467.424,370.533,444.517,393.44,416.038,393.44z M416.038,308.004
		c-18.573,0-34.05,15.477-34.05,34.05s15.477,34.05,34.05,34.05s34.05-15.477,34.05-34.05
		C450.708,323.481,435.23,308.004,416.038,308.004z"/>
	<path style="fill:#17232C;" d="M335.555,393.44H53.243c-4.953,0-8.668-3.715-8.668-8.668V187.898c0-4.953,3.715-8.668,8.668-8.668
		h282.311c4.953,0,8.668,3.715,8.668,8.668v196.875C344.222,389.725,340.508,393.44,335.555,393.44z M61.911,376.724h265.596
		V196.566H61.911V376.724z"/>
</g>
<rect x="194.397" y="103.08" style="fill:#D3EEE5;" width="61.29" height="41.479"/>
<path style="fill:#17232C;" d="M255.69,153.228h-61.291c-4.953,0-8.668-3.715-8.668-8.668V103.08c0-4.953,3.715-8.668,8.668-8.668
	h61.291c4.953,0,8.668,3.715,8.668,8.668v41.479C264.357,149.513,260.644,153.228,255.69,153.228z M203.066,135.893h43.957v-24.765
	h-43.957V135.893z"/>
<path style="fill:#18232C;" d="M333.078,357.532c-2.476,0-4.953-1.239-6.191-3.096l-79.245-89.151l-61.911,74.912
	c-1.239,1.857-3.715,3.096-6.191,3.096c-2.476,0-4.333-0.619-6.191-2.476l-53.862-48.29l-59.432,62.53
	c-3.096,3.715-8.668,3.715-11.763,0c-3.096-3.096-3.715-8.668,0-11.764l65.624-68.102c3.096-3.096,8.668-3.715,11.763-0.619
	l53.243,48.29l62.53-75.531c1.857-1.857,3.715-3.096,6.191-3.096c2.476,0,4.953,1.239,6.81,3.096l85.436,96.58
	c3.096,3.715,2.476,8.668-0.619,11.763C336.793,356.914,334.936,357.532,333.078,357.532z"/>
<g>
</g>
<g>
</g>
<g>
</g>
<g>
</g>
<g>
</g>
<g>
</g>
<g>
</g>
<g>
</g>
<g>
</g>
<g>
</g>
<g>
</g>
<g>
</g>
<g>
</g>
<g>
</g>
<g>
</g>
</svg>
